<svg viewBox="0 0 18 18" xmlns="http://www.w3.org/2000/svg"><path d="M9.99995 4.5L12.1693 9.74271C12.5238 9.26908 12.8584 8.85878 13.1147 8.55547L10.8 3H9.19995L4.19995 15H5.69995L7.09995 11.5H10.9914C11.2327 11.0861 11.4984 10.6803 11.7652 10.3H7.59995L9.99995 4.5ZM13.959 9C13.959 9 11.0003 12.1199 11.0003 14.0398C10.9949 14.4233 11.0671 14.804 11.2129 15.1603C11.3587 15.5165 11.5751 15.8414 11.8499 16.1162C12.4047 16.6713 13.1634 16.9891 13.959 16.9997C14.7547 17.0103 15.522 16.7129 16.0923 16.1728C16.3747 15.9054 16.6002 15.5864 16.7559 15.2342C16.9117 14.8819 16.9946 14.5033 17 14.1198V14.0398C17 12.1199 13.959 9 13.959 9Z"/></svg>
