<svg width="20" height="20" viewBox="0 0 20 20" fill="none" xmlns="http://www.w3.org/2000/svg">
<path fill-rule="evenodd" clip-rule="evenodd" d="M9.66741 3.72433L12.1613 9.75114C12.5688 9.20669 12.9533 8.73502 13.248 8.38635L10.5871 2H8.74777L3 15.7946H4.72433L6.3337 11.7712H10.8072C11.0845 11.2954 11.39 10.8289 11.6967 10.3917H6.90848L9.66741 3.72433ZM14.2185 8.89734C14.2185 8.89734 10.8172 12.4838 10.8172 14.6909C10.811 15.1317 10.8941 15.5693 11.0616 15.9789C11.2292 16.3884 11.478 16.7619 11.7938 17.0778C12.4317 17.7159 13.3039 18.0813 14.2185 18.0934C15.1331 18.1056 16.0152 17.7637 16.6708 17.1428C16.9954 16.8354 17.2546 16.4688 17.4336 16.0639C17.6127 15.6589 17.708 15.2236 17.7142 14.7828V14.6909C17.7142 12.4838 14.2185 8.89734 14.2185 8.89734Z" fill="black"/>
</svg>
