<svg width="20" height="20" viewBox="0 0 20 20" fill="none" xmlns="http://www.w3.org/2000/svg">
<path fill-rule="evenodd" clip-rule="evenodd" d="M9.49686 4.75782L12.0391 10.9016C12.4546 10.3466 12.8466 9.86577 13.147 9.51034L10.4344 3H8.55936L2.69995 17.0626H4.45777L6.09841 12.961H10.6587C10.9414 12.476 11.2528 12.0004 11.5655 11.5547H6.68435L9.49686 4.75782ZM14.1364 10.0313C14.1364 10.0313 10.669 13.6874 10.669 15.9373C10.6627 16.3867 10.7474 16.8328 10.9182 17.2504C11.089 17.6679 11.3427 18.0485 11.6646 18.3706C12.3149 19.0211 13.204 19.3935 14.1364 19.406C15.0687 19.4184 15.968 19.0698 16.6363 18.4369C16.9672 18.1235 17.2314 17.7498 17.414 17.337C17.5965 16.9242 17.6937 16.4804 17.7 16.0311V15.9373C17.7 13.6874 14.1364 10.0313 14.1364 10.0313Z" fill="#333333"/>
</svg>
