<svg width="20" height="20" viewBox="0 0 20 20" fill="none" xmlns="http://www.w3.org/2000/svg">
<path d="M11.2998 16.6L11.2998 5.5L15.7998 5.5C16.065 5.5 16.3194 5.39464 16.5069 5.20711C16.6944 5.01957 16.7998 4.76522 16.7998 4.5L16.7998 4C16.7998 3.73478 16.6944 3.48043 16.5069 3.29289C16.3194 3.10536 16.065 3 15.7998 3L4.29981 3C4.03459 3 3.78023 3.10536 3.5927 3.29289C3.40516 3.48043 3.29981 3.73478 3.29981 4L3.29981 4.5C3.29981 4.76522 3.40516 5.01957 3.5927 5.20711C3.78023 5.39464 4.03459 5.5 4.29981 5.5L8.7998 5.5L8.7998 16.6C8.7998 17.0971 9.20275 17.5 9.6998 17.5L10.3998 17.5C10.8969 17.5 11.2998 17.0971 11.2998 16.6Z" fill="black"/>
</svg>
